<mxfile host="app.diagrams.net" agent="Mozilla/5.0 (Windows NT 10.0; Win64; x64) AppleWebKit/537.36 (KHTML, like Gecko) Chrome/130.0.0.0 Safari/537.36" version="26.1.3" pages="2">
  <diagram name="CLD" id="E3cifal833Zn7vnsdFy6">
    <mxGraphModel dx="1050" dy="585" grid="1" gridSize="10" guides="1" tooltips="1" connect="1" arrows="1" fold="1" page="1" pageScale="1" pageWidth="827" pageHeight="1169" math="0" shadow="0">
      <root>
        <mxCell id="0" />
        <mxCell id="1" parent="0" />
        <mxCell id="bq1mSWKk0N4hh42qxB7I-1" style="edgeStyle=orthogonalEdgeStyle;rounded=0;orthogonalLoop=1;jettySize=auto;html=1;exitX=1;exitY=0.5;exitDx=0;exitDy=0;entryX=0.5;entryY=0;entryDx=0;entryDy=0;curved=1;" edge="1" parent="1" source="bq1mSWKk0N4hh42qxB7I-3" target="bq1mSWKk0N4hh42qxB7I-6">
          <mxGeometry relative="1" as="geometry" />
        </mxCell>
        <mxCell id="bq1mSWKk0N4hh42qxB7I-2" value="+" style="edgeLabel;html=1;align=center;verticalAlign=middle;resizable=0;points=[];" vertex="1" connectable="0" parent="bq1mSWKk0N4hh42qxB7I-1">
          <mxGeometry x="0.8206" y="2" relative="1" as="geometry">
            <mxPoint x="8" y="-7" as="offset" />
          </mxGeometry>
        </mxCell>
        <mxCell id="bq1mSWKk0N4hh42qxB7I-3" value="Запасы на складе" style="text;html=1;align=center;verticalAlign=middle;whiteSpace=wrap;rounded=0;" vertex="1" parent="1">
          <mxGeometry x="360" y="260" width="60" height="30" as="geometry" />
        </mxCell>
        <mxCell id="bq1mSWKk0N4hh42qxB7I-4" style="edgeStyle=orthogonalEdgeStyle;rounded=0;orthogonalLoop=1;jettySize=auto;html=1;exitX=0.5;exitY=1;exitDx=0;exitDy=0;entryX=0.5;entryY=1;entryDx=0;entryDy=0;curved=1;" edge="1" parent="1" source="bq1mSWKk0N4hh42qxB7I-6" target="bq1mSWKk0N4hh42qxB7I-9">
          <mxGeometry relative="1" as="geometry">
            <Array as="points">
              <mxPoint x="500" y="440" />
              <mxPoint x="300" y="440" />
            </Array>
          </mxGeometry>
        </mxCell>
        <mxCell id="bq1mSWKk0N4hh42qxB7I-5" value="+" style="edgeLabel;html=1;align=center;verticalAlign=middle;resizable=0;points=[];" vertex="1" connectable="0" parent="bq1mSWKk0N4hh42qxB7I-4">
          <mxGeometry x="0.9292" y="-8" relative="1" as="geometry">
            <mxPoint x="2" y="-6" as="offset" />
          </mxGeometry>
        </mxCell>
        <mxCell id="bq1mSWKk0N4hh42qxB7I-6" value="Заказы поставщикам" style="text;html=1;align=center;verticalAlign=middle;whiteSpace=wrap;rounded=0;" vertex="1" parent="1">
          <mxGeometry x="470" y="340" width="60" height="30" as="geometry" />
        </mxCell>
        <mxCell id="bq1mSWKk0N4hh42qxB7I-7" style="edgeStyle=orthogonalEdgeStyle;rounded=0;orthogonalLoop=1;jettySize=auto;html=1;exitX=0.5;exitY=0;exitDx=0;exitDy=0;entryX=0;entryY=1;entryDx=0;entryDy=0;curved=1;" edge="1" parent="1" source="bq1mSWKk0N4hh42qxB7I-9" target="bq1mSWKk0N4hh42qxB7I-3">
          <mxGeometry relative="1" as="geometry">
            <Array as="points">
              <mxPoint x="300" y="290" />
            </Array>
          </mxGeometry>
        </mxCell>
        <mxCell id="bq1mSWKk0N4hh42qxB7I-8" value="+" style="edgeLabel;html=1;align=center;verticalAlign=middle;resizable=0;points=[];" vertex="1" connectable="0" parent="bq1mSWKk0N4hh42qxB7I-7">
          <mxGeometry x="0.7214" y="-4" relative="1" as="geometry">
            <mxPoint x="6" y="4" as="offset" />
          </mxGeometry>
        </mxCell>
        <mxCell id="bq1mSWKk0N4hh42qxB7I-9" value="Поступления" style="text;html=1;align=center;verticalAlign=middle;whiteSpace=wrap;rounded=0;" vertex="1" parent="1">
          <mxGeometry x="270" y="360" width="60" height="30" as="geometry" />
        </mxCell>
        <mxCell id="bq1mSWKk0N4hh42qxB7I-10" style="edgeStyle=orthogonalEdgeStyle;rounded=0;orthogonalLoop=1;jettySize=auto;html=1;exitX=0.5;exitY=1;exitDx=0;exitDy=0;entryX=0;entryY=0;entryDx=0;entryDy=0;curved=1;" edge="1" parent="1" source="bq1mSWKk0N4hh42qxB7I-12" target="bq1mSWKk0N4hh42qxB7I-3">
          <mxGeometry relative="1" as="geometry">
            <Array as="points">
              <mxPoint x="310" y="260" />
            </Array>
          </mxGeometry>
        </mxCell>
        <mxCell id="bq1mSWKk0N4hh42qxB7I-11" value="&lt;span style=&quot;color: rgb(71, 71, 71); font-family: Arial, sans-serif; font-size: 14px; text-align: left; text-wrap-mode: wrap;&quot;&gt;−&lt;/span&gt;" style="edgeLabel;html=1;align=center;verticalAlign=middle;resizable=0;points=[];fontFamily=Helvetica;fontSize=11;fontColor=default;labelBackgroundColor=default;" vertex="1" connectable="0" parent="bq1mSWKk0N4hh42qxB7I-10">
          <mxGeometry x="0.3415" y="11" relative="1" as="geometry">
            <mxPoint x="25" y="-1" as="offset" />
          </mxGeometry>
        </mxCell>
        <mxCell id="bq1mSWKk0N4hh42qxB7I-12" value="Отгрузки" style="text;html=1;align=center;verticalAlign=middle;whiteSpace=wrap;rounded=0;" vertex="1" parent="1">
          <mxGeometry x="280" y="160" width="60" height="30" as="geometry" />
        </mxCell>
        <mxCell id="bq1mSWKk0N4hh42qxB7I-13" style="edgeStyle=orthogonalEdgeStyle;shape=connector;curved=1;rounded=0;orthogonalLoop=1;jettySize=auto;html=1;strokeColor=default;align=center;verticalAlign=middle;fontFamily=Helvetica;fontSize=11;fontColor=default;labelBackgroundColor=default;endArrow=classic;" edge="1" parent="1" source="bq1mSWKk0N4hh42qxB7I-15" target="bq1mSWKk0N4hh42qxB7I-12">
          <mxGeometry relative="1" as="geometry" />
        </mxCell>
        <mxCell id="bq1mSWKk0N4hh42qxB7I-14" value="+" style="edgeLabel;html=1;align=center;verticalAlign=middle;resizable=0;points=[];fontFamily=Helvetica;fontSize=11;fontColor=default;labelBackgroundColor=default;" vertex="1" connectable="0" parent="bq1mSWKk0N4hh42qxB7I-13">
          <mxGeometry x="0.7527" y="-1" relative="1" as="geometry">
            <mxPoint x="-9" as="offset" />
          </mxGeometry>
        </mxCell>
        <mxCell id="bq1mSWKk0N4hh42qxB7I-15" value="Спрос" style="text;html=1;align=center;verticalAlign=middle;resizable=0;points=[];autosize=1;strokeColor=none;fillColor=none;fontFamily=Helvetica;fontSize=11;fontColor=default;labelBackgroundColor=default;" vertex="1" parent="1">
          <mxGeometry x="370" y="40" width="60" height="30" as="geometry" />
        </mxCell>
        <mxCell id="bq1mSWKk0N4hh42qxB7I-16" style="edgeStyle=orthogonalEdgeStyle;shape=connector;curved=1;rounded=0;orthogonalLoop=1;jettySize=auto;html=1;exitX=1;exitY=0.5;exitDx=0;exitDy=0;entryX=0.506;entryY=1.05;entryDx=0;entryDy=0;entryPerimeter=0;strokeColor=default;align=center;verticalAlign=middle;fontFamily=Helvetica;fontSize=11;fontColor=default;labelBackgroundColor=default;endArrow=classic;" edge="1" parent="1" source="bq1mSWKk0N4hh42qxB7I-12" target="bq1mSWKk0N4hh42qxB7I-15">
          <mxGeometry relative="1" as="geometry" />
        </mxCell>
        <mxCell id="bq1mSWKk0N4hh42qxB7I-17" value="&lt;span style=&quot;color: rgb(71, 71, 71); font-family: Arial, sans-serif; font-size: 14px; text-align: left; text-wrap-mode: wrap;&quot;&gt;−&lt;/span&gt;" style="edgeLabel;html=1;align=center;verticalAlign=middle;resizable=0;points=[];fontFamily=Helvetica;fontSize=11;fontColor=default;labelBackgroundColor=default;" vertex="1" connectable="0" parent="bq1mSWKk0N4hh42qxB7I-16">
          <mxGeometry x="0.7966" y="-1" relative="1" as="geometry">
            <mxPoint x="9" as="offset" />
          </mxGeometry>
        </mxCell>
        <mxCell id="bq1mSWKk0N4hh42qxB7I-18" value="R" style="text;html=1;align=center;verticalAlign=middle;resizable=0;points=[];autosize=1;strokeColor=none;fillColor=none;fontFamily=Helvetica;fontSize=16;fontColor=default;labelBackgroundColor=default;fontStyle=1" vertex="1" parent="1">
          <mxGeometry x="380" y="340" width="40" height="30" as="geometry" />
        </mxCell>
        <mxCell id="bq1mSWKk0N4hh42qxB7I-19" style="edgeStyle=orthogonalEdgeStyle;shape=connector;curved=1;rounded=0;orthogonalLoop=1;jettySize=auto;html=1;entryX=0;entryY=0.5;entryDx=0;entryDy=0;strokeColor=default;align=center;verticalAlign=middle;fontFamily=Helvetica;fontSize=11;fontColor=default;labelBackgroundColor=default;endArrow=classic;" edge="1" parent="1" source="bq1mSWKk0N4hh42qxB7I-20" target="bq1mSWKk0N4hh42qxB7I-3">
          <mxGeometry relative="1" as="geometry" />
        </mxCell>
        <mxCell id="bq1mSWKk0N4hh42qxB7I-20" value="Минимальный уровень запасов" style="text;html=1;align=center;verticalAlign=middle;whiteSpace=wrap;rounded=0;fontFamily=Helvetica;fontSize=11;fontColor=default;labelBackgroundColor=default;" vertex="1" parent="1">
          <mxGeometry x="160" y="260" width="60" height="30" as="geometry" />
        </mxCell>
        <mxCell id="bq1mSWKk0N4hh42qxB7I-21" value="+" style="edgeLabel;html=1;align=center;verticalAlign=middle;resizable=0;points=[];" vertex="1" connectable="0" parent="1">
          <mxGeometry x="343.00476190476184" y="267" as="geometry" />
        </mxCell>
        <mxCell id="bq1mSWKk0N4hh42qxB7I-22" value="B" style="text;html=1;align=center;verticalAlign=middle;resizable=0;points=[];autosize=1;strokeColor=none;fillColor=none;fontFamily=Helvetica;fontSize=16;fontColor=default;labelBackgroundColor=default;fontStyle=1" vertex="1" parent="1">
          <mxGeometry x="340" y="100" width="30" height="30" as="geometry" />
        </mxCell>
        <mxCell id="bq1mSWKk0N4hh42qxB7I-23" value="" style="shape=link;html=1;rounded=0;strokeColor=default;align=center;verticalAlign=middle;fontFamily=Helvetica;fontSize=11;fontColor=default;labelBackgroundColor=default;endArrow=classic;" edge="1" parent="1">
          <mxGeometry width="100" relative="1" as="geometry">
            <mxPoint x="403" y="431" as="sourcePoint" />
            <mxPoint x="403" y="451" as="targetPoint" />
            <Array as="points">
              <mxPoint x="403" y="441" />
            </Array>
          </mxGeometry>
        </mxCell>
      </root>
    </mxGraphModel>
  </diagram>
  <diagram id="SbMZtMLe8kJYjsVwg5MA" name="DFD">
    <mxGraphModel dx="1050" dy="585" grid="1" gridSize="10" guides="1" tooltips="1" connect="1" arrows="1" fold="1" page="1" pageScale="1" pageWidth="827" pageHeight="1169" math="0" shadow="0">
      <root>
        <mxCell id="0" />
        <mxCell id="1" parent="0" />
        <mxCell id="tAjKob237Qw-9pA68KcA-1" style="edgeStyle=orthogonalEdgeStyle;rounded=0;orthogonalLoop=1;jettySize=auto;html=1;exitX=0.75;exitY=1;exitDx=0;exitDy=0;curved=1;" edge="1" parent="1" source="tAjKob237Qw-9pA68KcA-2">
          <mxGeometry relative="1" as="geometry">
            <mxPoint x="420" y="260" as="targetPoint" />
            <Array as="points">
              <mxPoint x="450" y="170" />
              <mxPoint x="450" y="260" />
            </Array>
          </mxGeometry>
        </mxCell>
        <mxCell id="tAjKob237Qw-9pA68KcA-2" value="Запасы на складе" style="rounded=0;whiteSpace=wrap;html=1;" vertex="1" parent="1">
          <mxGeometry x="370" y="130" width="85" height="40" as="geometry" />
        </mxCell>
        <mxCell id="tAjKob237Qw-9pA68KcA-3" value="" style="shape=flexArrow;endArrow=classic;html=1;rounded=0;endWidth=6.099773242630386;width=6.19047619047619;endSize=5.985714285714286;entryX=0;entryY=0.5;entryDx=0;entryDy=0;" edge="1" parent="1" target="tAjKob237Qw-9pA68KcA-2">
          <mxGeometry width="50" height="50" relative="1" as="geometry">
            <mxPoint x="210" y="149.76" as="sourcePoint" />
            <mxPoint x="360" y="149.76" as="targetPoint" />
          </mxGeometry>
        </mxCell>
        <mxCell id="tAjKob237Qw-9pA68KcA-4" value="" style="shape=flexArrow;endArrow=classic;html=1;rounded=0;endWidth=6.099773242630386;width=6.19047619047619;endSize=5.985714285714286;exitX=1;exitY=0.5;exitDx=0;exitDy=0;" edge="1" parent="1" source="tAjKob237Qw-9pA68KcA-2">
          <mxGeometry width="50" height="50" relative="1" as="geometry">
            <mxPoint x="455" y="149.65999999999997" as="sourcePoint" />
            <mxPoint x="590" y="150" as="targetPoint" />
          </mxGeometry>
        </mxCell>
        <mxCell id="tAjKob237Qw-9pA68KcA-5" value="Поступления" style="text;html=1;align=center;verticalAlign=middle;whiteSpace=wrap;rounded=0;" vertex="1" parent="1">
          <mxGeometry x="242.5" y="160" width="85" height="30" as="geometry" />
        </mxCell>
        <mxCell id="tAjKob237Qw-9pA68KcA-6" value="Отгрузки" style="text;html=1;align=center;verticalAlign=middle;whiteSpace=wrap;rounded=0;" vertex="1" parent="1">
          <mxGeometry x="485" y="160" width="60" height="30" as="geometry" />
        </mxCell>
        <mxCell id="tAjKob237Qw-9pA68KcA-7" style="edgeStyle=orthogonalEdgeStyle;rounded=0;orthogonalLoop=1;jettySize=auto;html=1;entryX=0;entryY=0;entryDx=0;entryDy=0;curved=1;exitX=0;exitY=0.5;exitDx=0;exitDy=0;" edge="1" parent="1" source="tAjKob237Qw-9pA68KcA-8" target="tAjKob237Qw-9pA68KcA-12">
          <mxGeometry relative="1" as="geometry">
            <Array as="points">
              <mxPoint x="470" y="65" />
              <mxPoint x="470" y="140" />
            </Array>
          </mxGeometry>
        </mxCell>
        <mxCell id="tAjKob237Qw-9pA68KcA-8" value="Спрос" style="text;html=1;align=center;verticalAlign=middle;whiteSpace=wrap;rounded=0;" vertex="1" parent="1">
          <mxGeometry x="490" y="50" width="50" height="30" as="geometry" />
        </mxCell>
        <mxCell id="tAjKob237Qw-9pA68KcA-9" value="" style="ellipse;shape=cloud;whiteSpace=wrap;html=1;" vertex="1" parent="1">
          <mxGeometry x="190" y="140" width="30" height="20" as="geometry" />
        </mxCell>
        <mxCell id="tAjKob237Qw-9pA68KcA-10" value="" style="ellipse;shape=cloud;whiteSpace=wrap;html=1;" vertex="1" parent="1">
          <mxGeometry x="590" y="140" width="30" height="20" as="geometry" />
        </mxCell>
        <mxCell id="tAjKob237Qw-9pA68KcA-11" value="" style="shape=collate;whiteSpace=wrap;html=1;" vertex="1" parent="1">
          <mxGeometry x="280" y="140" width="10" height="20" as="geometry" />
        </mxCell>
        <mxCell id="tAjKob237Qw-9pA68KcA-12" value="" style="shape=collate;whiteSpace=wrap;html=1;" vertex="1" parent="1">
          <mxGeometry x="510" y="140" width="10" height="20" as="geometry" />
        </mxCell>
        <mxCell id="tAjKob237Qw-9pA68KcA-13" style="edgeStyle=orthogonalEdgeStyle;rounded=0;orthogonalLoop=1;jettySize=auto;html=1;entryX=0;entryY=1;entryDx=0;entryDy=0;curved=1;exitX=0;exitY=0.5;exitDx=0;exitDy=0;" edge="1" parent="1" source="tAjKob237Qw-9pA68KcA-14" target="tAjKob237Qw-9pA68KcA-11">
          <mxGeometry relative="1" as="geometry">
            <Array as="points">
              <mxPoint x="223" y="270" />
              <mxPoint x="223" y="160" />
            </Array>
          </mxGeometry>
        </mxCell>
        <mxCell id="tAjKob237Qw-9pA68KcA-14" value="Заказы поставщикам" style="rounded=0;whiteSpace=wrap;html=1;" vertex="1" parent="1">
          <mxGeometry x="242.5" y="250" width="85" height="40" as="geometry" />
        </mxCell>
        <mxCell id="tAjKob237Qw-9pA68KcA-15" value="" style="shape=flexArrow;endArrow=classic;html=1;rounded=0;endWidth=6.099773242630386;width=6.19047619047619;endSize=5.985714285714286;entryX=1;entryY=0.5;entryDx=0;entryDy=0;" edge="1" parent="1">
          <mxGeometry width="50" height="50" relative="1" as="geometry">
            <mxPoint x="484" y="270" as="sourcePoint" />
            <mxPoint x="329" y="270" as="targetPoint" />
          </mxGeometry>
        </mxCell>
        <mxCell id="tAjKob237Qw-9pA68KcA-16" value="" style="shape=collate;whiteSpace=wrap;html=1;" vertex="1" parent="1">
          <mxGeometry x="408" y="260" width="10" height="20" as="geometry" />
        </mxCell>
        <mxCell id="tAjKob237Qw-9pA68KcA-17" value="Формирование&lt;div&gt;заказов&lt;/div&gt;" style="text;html=1;align=center;verticalAlign=middle;whiteSpace=wrap;rounded=0;" vertex="1" parent="1">
          <mxGeometry x="376" y="286" width="74" height="30" as="geometry" />
        </mxCell>
        <mxCell id="tAjKob237Qw-9pA68KcA-18" value="" style="ellipse;shape=cloud;whiteSpace=wrap;html=1;" vertex="1" parent="1">
          <mxGeometry x="466" y="260" width="30" height="20" as="geometry" />
        </mxCell>
        <mxCell id="tAjKob237Qw-9pA68KcA-19" style="edgeStyle=orthogonalEdgeStyle;rounded=0;orthogonalLoop=1;jettySize=auto;html=1;curved=1;exitX=1;exitY=0.5;exitDx=0;exitDy=0;entryX=1;entryY=1;entryDx=0;entryDy=0;" edge="1" parent="1" source="tAjKob237Qw-9pA68KcA-20" target="tAjKob237Qw-9pA68KcA-16">
          <mxGeometry relative="1" as="geometry">
            <mxPoint x="469.9999999999999" y="395" as="sourcePoint" />
            <mxPoint x="460.0000000000001" y="316" as="targetPoint" />
            <Array as="points">
              <mxPoint x="480" y="395" />
              <mxPoint x="480" y="280" />
            </Array>
          </mxGeometry>
        </mxCell>
        <mxCell id="tAjKob237Qw-9pA68KcA-20" value="Минимальный уровень запасов" style="text;html=1;align=center;verticalAlign=middle;whiteSpace=wrap;rounded=0;" vertex="1" parent="1">
          <mxGeometry x="368" y="380" width="92" height="30" as="geometry" />
        </mxCell>
        <mxCell id="tAjKob237Qw-9pA68KcA-21" value="" style="endArrow=none;endFill=1;html=1;rounded=0;startFill=0;shape=link;" edge="1" parent="1">
          <mxGeometry width="160" relative="1" as="geometry">
            <mxPoint x="213" y="214" as="sourcePoint" />
            <mxPoint x="233" y="214" as="targetPoint" />
          </mxGeometry>
        </mxCell>
      </root>
    </mxGraphModel>
  </diagram>
</mxfile>
